<svg width="20" height="20" viewBox="0 0 20 20" fill="none" xmlns="http://www.w3.org/2000/svg">
<path d="M18.1244 18.7499C17.9645 18.7499 17.8046 18.6888 17.6825 18.5668L10.3198 11.2041C10.0757 10.96 10.0757 10.5645 10.3198 10.3203C10.564 10.0762 10.9595 10.0762 11.2036 10.3203L18.5663 17.683C18.8104 17.9271 18.8104 18.3226 18.5663 18.5668C18.4442 18.6888 18.2843 18.7499 18.1244 18.7499Z" fill="#384685"/>
<path d="M7.082 12.9095C5.58908 12.9095 4.09555 12.341 2.95908 11.2042C0.685516 8.93066 0.685516 5.23163 2.95908 2.95807C4.06015 1.85669 5.52438 1.25 7.082 1.25C8.64023 1.25 10.1045 1.85669 11.2055 2.95807C13.4791 5.23163 13.4791 8.93066 11.2055 11.2042C10.0691 12.341 8.57553 12.9095 7.082 12.9095ZM7.082 2.5C5.85886 2.5 4.70834 2.97638 3.84286 3.84186C2.05698 5.62805 2.05698 8.53424 3.84286 10.3204C5.62936 12.1069 8.53647 12.1057 10.3217 10.3204C12.1076 8.53424 12.1076 5.62805 10.3217 3.84186C9.45627 2.97638 8.30576 2.5 7.082 2.5Z" fill="#384685"/>
</svg>
