<svg width="11" height="20" viewBox="0 0 11 20" fill="none" xmlns="http://www.w3.org/2000/svg">
<path d="M10.9998 1.18683C10.9998 0.883459 10.8818 0.575621 10.6516 0.345506C10.191 -0.115168 9.42922 -0.115168 8.96855 0.345506L0.348226 8.96583C0.125732 9.18832 9.63211e-05 9.50221 9.63211e-05 9.80715C9.63211e-05 10.1092 0.110049 10.4103 0.348226 10.6485L8.95749 19.257C9.41139 19.7393 10.1911 19.7455 10.6518 19.2848C11.1125 18.8241 11.1125 18.0624 10.6518 17.6017L10.6515 17.6014L2.85718 9.82256L10.6519 2.02787C10.8824 1.79732 11 1.48949 11 1.18654L10.9998 1.18683Z" fill="black"/>
</svg>
