<svg width="49" height="49" viewBox="0 0 49 49" fill="none" xmlns="http://www.w3.org/2000/svg">
<path d="M22.4864 42.1094H21.1542C20.4177 42.1074 19.712 41.8139 19.1912 41.2931C18.6705 40.7724 18.377 40.0666 18.375 39.3302V31.1073C18.377 30.3709 18.6705 29.6651 19.1912 29.1444C19.712 28.6236 20.4177 28.3301 21.1542 28.3281H22.4864C22.711 28.3297 22.9346 28.358 23.1525 28.4123C23.7564 28.5586 24.2934 28.9042 24.6768 29.3931C25.0602 29.8821 25.2676 30.486 25.2656 31.1073V39.3302C25.2636 40.0666 24.9701 40.7724 24.4494 41.2931C23.9286 41.8139 23.2229 42.1074 22.4864 42.1094ZM21.1542 29.8594C20.9903 29.8594 20.8281 29.8917 20.6766 29.9544C20.5252 30.0171 20.3877 30.109 20.2718 30.2249C20.1559 30.3408 20.064 30.4784 20.0012 30.6298C19.9385 30.7812 19.9063 30.9435 19.9063 31.1073V39.3302C19.9063 39.494 19.9385 39.6563 20.0012 39.8077C20.064 39.9591 20.1559 40.0967 20.2718 40.2126C20.3877 40.3285 20.5252 40.4204 20.6766 40.4831C20.8281 40.5458 20.9903 40.5781 21.1542 40.5781H22.4864C22.6503 40.5781 22.8126 40.5458 22.964 40.4831C23.1154 40.4204 23.253 40.3285 23.3689 40.2126C23.4847 40.0967 23.5767 39.9591 23.6394 39.8077C23.7021 39.6563 23.7344 39.494 23.7344 39.3302V31.1073C23.7339 30.8287 23.6402 30.5581 23.4681 30.3389C23.2961 30.1197 23.0556 29.9643 22.785 29.8977C22.6858 29.8869 22.5856 29.8869 22.4864 29.8977L21.1542 29.8594Z" fill="#384685"/>
<path d="M43.9239 42.1094H42.5917C41.8553 42.1074 41.1495 41.8139 40.6288 41.2931C40.108 40.7724 39.8145 40.0666 39.8125 39.3302V31.1073C39.8105 30.486 40.018 29.8821 40.4014 29.3931C40.7848 28.9042 41.3218 28.5586 41.9256 28.4123C42.1435 28.358 42.3671 28.3297 42.5917 28.3281H43.9239C44.6604 28.3301 45.3661 28.6236 45.8869 29.1444C46.4077 29.6651 46.7011 30.3709 46.7031 31.1073V39.3302C46.7011 40.0666 46.4077 40.7724 45.8869 41.2931C45.3661 41.8139 44.6604 42.1074 43.9239 42.1094ZM42.5917 29.8594C42.4925 29.8486 42.3924 29.8486 42.2931 29.8594C42.0161 29.9275 41.7707 30.0886 41.598 30.3156C41.4252 30.5427 41.3355 30.8221 41.3438 31.1073V39.3302C41.3438 39.494 41.376 39.6563 41.4388 39.8077C41.5015 39.9591 41.5934 40.0967 41.7093 40.2126C41.8252 40.3285 41.9627 40.4204 42.1142 40.4831C42.2656 40.5458 42.4278 40.5781 42.5917 40.5781H43.9239C44.2549 40.5781 44.5723 40.4466 44.8064 40.2126C45.0404 39.9786 45.1719 39.6611 45.1719 39.3302V31.1073C45.1719 30.9435 45.1396 30.7812 45.0769 30.6298C45.0142 30.4784 44.9223 30.3408 44.8064 30.2249C44.6905 30.109 44.5529 30.0171 44.4015 29.9544C44.2501 29.8917 44.0878 29.8594 43.9239 29.8594H42.5917Z" fill="#384685"/>
<path d="M16.8438 38.2812H2.29688V29.0938H16.8438V38.2812ZM3.82812 36.75H15.3125V30.625H3.82812V36.75Z" fill="#384685"/>
<path d="M16.8438 36.75H15.3125V42.1094H16.8438V36.75Z" fill="#384685"/>
<path d="M3.82812 36.75H2.29688V42.1094H3.82812V36.75Z" fill="#384685"/>
<path d="M39.0469 42.1094H26.0312C25.4221 42.1094 24.8379 41.8674 24.4071 41.4366C23.9764 41.0059 23.7344 40.4217 23.7344 39.8125V35.2188H41.3438V39.8125C41.3438 40.4217 41.1018 41.0059 40.671 41.4366C40.2403 41.8674 39.656 42.1094 39.0469 42.1094ZM25.2656 36.75V39.8125C25.2656 40.0156 25.3463 40.2103 25.4899 40.3539C25.6335 40.4975 25.8282 40.5781 26.0312 40.5781H39.0469C39.2499 40.5781 39.4447 40.4975 39.5883 40.3539C39.7318 40.2103 39.8125 40.0156 39.8125 39.8125V36.75H25.2656Z" fill="#384685"/>
<path d="M41.3438 36.75H23.7344V34.4531C23.7344 33.4378 24.1377 32.4641 24.8556 31.7462C25.5735 31.0283 26.5472 30.625 27.5625 30.625H37.5156C38.5309 30.625 39.5046 31.0283 40.2225 31.7462C40.9404 32.4641 41.3438 33.4378 41.3438 34.4531V36.75ZM25.2656 35.2188H39.8125V34.4531C39.8125 33.844 39.5705 33.2597 39.1398 32.829C38.709 32.3982 38.1248 32.1562 37.5156 32.1562H27.5625C26.9533 32.1562 26.3691 32.3982 25.9384 32.829C25.5076 33.2597 25.2656 33.844 25.2656 34.4531V35.2188Z" fill="#384685"/>
<path d="M41.3438 34.4531H39.8125C39.8125 33.844 39.5705 33.2597 39.1398 32.829C38.709 32.3982 38.1248 32.1562 37.5156 32.1562H27.5625C26.9533 32.1562 26.3691 32.3982 25.9384 32.829C25.5076 33.2597 25.2656 33.844 25.2656 34.4531H23.7344V31.1073C23.7339 30.8287 23.6402 30.5581 23.4681 30.3389C23.2961 30.1197 23.0556 29.9643 22.785 29.8977L22.2031 29.7598V23.7344C22.2031 22.313 22.7678 20.9498 23.7728 19.9447C24.7779 18.9396 26.1411 18.375 27.5625 18.375H37.5156C38.937 18.375 40.3002 18.9396 41.3053 19.9447C42.3104 20.9498 42.875 22.313 42.875 23.7344V29.7598L42.2931 29.8977C42.0225 29.9643 41.782 30.1197 41.61 30.3389C41.4379 30.5581 41.3442 30.8287 41.3438 31.1073V34.4531ZM27.5625 30.625H37.5156C38.3439 30.625 39.1499 30.8937 39.8125 31.3906V31.1073C39.8103 30.5921 39.9527 30.0865 40.2233 29.648C40.494 29.2095 40.8822 28.8557 41.3438 28.6267V23.7344C41.3438 22.7191 40.9404 21.7454 40.2225 21.0275C39.5046 20.3096 38.5309 19.9062 37.5156 19.9062H27.5625C26.5472 19.9062 25.5735 20.3096 24.8556 21.0275C24.1377 21.7454 23.7344 22.7191 23.7344 23.7344V28.6267C24.196 28.8557 24.5841 29.2095 24.8548 29.648C25.1255 30.0865 25.2678 30.5921 25.2656 31.1073V31.3906C25.9283 30.8937 26.7342 30.625 27.5625 30.625Z" fill="#384685"/>
<path d="M11.4844 32.9219H7.65625V34.4531H11.4844V32.9219Z" fill="#384685"/>
<path d="M12.0573 30.625H7.08078L5.10547 23.7344H14.0327L12.0573 30.625ZM8.22922 29.0938H10.9089L11.9961 25.2656H7.14203L8.22922 29.0938Z" fill="#384685"/>
<path d="M9.57031 25.2657C9.37482 25.2643 9.17994 25.2438 8.98844 25.2045C7.5534 24.9601 6.25006 24.2187 5.30663 23.1101C4.3632 22.0015 3.83982 20.5964 3.82812 19.1407V18.3751H4.59375C6.01838 18.3677 7.40036 18.8609 8.49844 19.7685L8.78172 19.9906V20.3504C8.77697 21.2824 9.05165 22.1945 9.57031 22.9688C10.0979 22.1999 10.3832 21.2906 10.3895 20.3581V19.9982L10.6728 19.7762C11.7617 18.8725 13.1318 18.377 14.5469 18.3751H15.3125V19.1407C15.318 20.6221 14.7904 22.056 13.8261 23.1805C12.8618 24.305 11.5252 25.0452 10.0603 25.2657C9.89738 25.2819 9.73324 25.2819 9.57031 25.2657ZM11.9055 20.7102C11.8492 21.6269 11.5876 22.5192 11.1398 23.321C11.8157 23.0115 12.4064 22.5425 12.8612 21.9544C13.3159 21.3663 13.6211 20.6767 13.7506 19.9446C13.0853 20.0605 12.4546 20.3248 11.9055 20.7179V20.7102ZM5.40531 19.9446C5.54381 20.6733 5.85248 21.3589 6.30617 21.9456C6.75987 22.5324 7.34575 23.0036 8.01609 23.321C7.57054 22.5183 7.30903 21.6265 7.25047 20.7102C6.69996 20.3226 6.06938 20.0635 5.40531 19.9523V19.9446Z" fill="#384685"/>
<path d="M9.56857 25.1967L9.02497 24.6607C8.89481 24.5229 8.76466 24.3851 8.64216 24.2396C7.65967 23.0532 7.15452 21.5433 7.2253 20.0045C7.29608 18.4657 7.93771 17.0085 9.02497 15.9173L9.56857 15.3813L10.1122 15.9173C10.6881 16.4898 11.1445 17.1712 11.4547 17.9217C11.7649 18.6722 11.9227 19.4769 11.919 20.289V20.3273C11.9147 21.7479 11.4167 23.1228 10.5103 24.2167C10.3725 24.3851 10.2423 24.5229 10.1122 24.6607L9.56857 25.1967ZM9.56857 17.6476C9.03527 18.4252 8.74985 19.3461 8.74985 20.289C8.74985 21.2319 9.03527 22.1528 9.56857 22.9304C10.0962 22.1615 10.3815 21.2522 10.3878 20.3196H11.1534H10.3878C10.3989 19.3655 10.1125 18.4316 9.56857 17.6476Z" fill="#384685"/>
<path d="M19.9062 15.3125H18.375V33.6875H19.9062V15.3125Z" fill="#384685"/>
<path d="M25.3406 16.8438H12.9375L13.8486 6.89062H24.4295L25.3406 16.8438ZM14.6219 15.3125H23.6562L23.0361 8.42188H15.242L14.6219 15.3125Z" fill="#384685"/>
</svg>
