<svg width="49" height="49" viewBox="0 0 49 49" fill="none" xmlns="http://www.w3.org/2000/svg">
<path d="M9.1875 44.4062H4.59375V4.59375H9.1875V44.4062ZM6.125 42.875H7.65625V6.125H6.125V42.875Z" fill="#384685"/>
<path d="M44.4062 44.4062H39.8125V4.59375H44.4062V44.4062ZM41.3438 42.875H42.875V6.125H41.3438V42.875Z" fill="#384685"/>
<path d="M41.3438 40.5781H7.65625V33.6875H41.3438V40.5781ZM9.1875 39.0469H39.8125V35.2188H9.1875V39.0469Z" fill="#384685"/>
<path d="M16.2389 35.2188H10.558C9.78839 35.2188 9.05032 34.913 8.50614 34.3689C7.96197 33.8247 7.65625 33.0866 7.65625 32.317V31.9955C7.65625 31.2259 7.96197 30.4878 8.50614 29.9436C9.05032 29.3995 9.78839 29.0938 10.558 29.0938H16.2389C17.0085 29.0938 17.7466 29.3995 18.2907 29.9436C18.8349 30.4878 19.1406 31.2259 19.1406 31.9955V32.317C19.1406 33.0866 18.8349 33.8247 18.2907 34.3689C17.7466 34.913 17.0085 35.2188 16.2389 35.2188ZM10.558 30.625C10.378 30.625 10.1998 30.6604 10.0335 30.7293C9.86724 30.7982 9.71616 30.8991 9.5889 31.0264C9.46164 31.1537 9.36069 31.3047 9.29182 31.471C9.22295 31.6373 9.1875 31.8155 9.1875 31.9955V32.317C9.1875 32.6805 9.33189 33.0291 9.5889 33.2861C9.84591 33.5431 10.1945 33.6875 10.558 33.6875H16.2389C16.6024 33.6875 16.951 33.5431 17.208 33.2861C17.465 33.0291 17.6094 32.6805 17.6094 32.317V31.9955C17.6094 31.632 17.465 31.2834 17.208 31.0264C16.951 30.7694 16.6024 30.625 16.2389 30.625H10.558Z" fill="#384685"/>
<path d="M41.3438 35.2188H22.2031V29.0938H35.9844C37.4058 29.0938 38.7689 29.6584 39.774 30.6635C40.7791 31.6686 41.3438 33.0317 41.3438 34.4531V35.2188ZM23.7344 33.6875H39.7359C39.5594 32.8228 39.0896 32.0457 38.406 31.4876C37.7223 30.9296 36.8669 30.6248 35.9844 30.625H23.7344V33.6875Z" fill="#384685"/>
<path d="M23.7344 35.2188H17.6094V28.3281H23.7344V35.2188ZM19.1406 33.6875H22.2031V29.8594H19.1406V33.6875Z" fill="#384685"/>
<path d="M41.3438 21.4375H7.65625V14.5469H41.3438V21.4375ZM9.1875 19.9062H39.8125V16.0781H9.1875V19.9062Z" fill="#384685"/>
<path d="M16.2389 16.0781H10.558C9.78839 16.0781 9.05032 15.7724 8.50614 15.2282C7.96197 14.6841 7.65625 13.946 7.65625 13.1764V12.8548C7.65625 12.0853 7.96197 11.3472 8.50614 10.803C9.05032 10.2588 9.78839 9.95312 10.558 9.95312H16.2389C17.0085 9.95312 17.7466 10.2588 18.2907 10.803C18.8349 11.3472 19.1406 12.0853 19.1406 12.8548V13.1764C19.1406 13.946 18.8349 14.6841 18.2907 15.2282C17.7466 15.7724 17.0085 16.0781 16.2389 16.0781ZM10.558 11.4844C10.378 11.4844 10.1998 11.5198 10.0335 11.5887C9.86724 11.6576 9.71616 11.7585 9.5889 11.8858C9.46164 12.013 9.36069 12.1641 9.29182 12.3304C9.22295 12.4967 9.1875 12.6749 9.1875 12.8548V13.1764C9.1875 13.5399 9.33189 13.8885 9.5889 14.1455C9.84591 14.4025 10.1945 14.5469 10.558 14.5469H16.2389C16.6024 14.5469 16.951 14.4025 17.208 14.1455C17.465 13.8885 17.6094 13.5399 17.6094 13.1764V12.8548C17.6094 12.4914 17.465 12.1428 17.208 11.8858C16.951 11.6288 16.6024 11.4844 16.2389 11.4844H10.558Z" fill="#384685"/>
<path d="M41.3438 16.0781H22.2031V9.95312H35.9844C37.4058 9.95312 38.7689 10.5178 39.774 11.5228C40.7791 12.5279 41.3438 13.8911 41.3438 15.3125V16.0781ZM23.7344 14.5469H39.7359C39.5594 13.6822 39.0896 12.9051 38.406 12.347C37.7223 11.7889 36.8669 11.4842 35.9844 11.4844H23.7344V14.5469Z" fill="#384685"/>
<path d="M23.7344 16.0781H17.6094V9.1875H23.7344V16.0781ZM19.1406 14.5469H22.2031V10.7188H19.1406V14.5469Z" fill="#384685"/>
</svg>
