<svg width="58" height="32" viewBox="0 0 58 32" fill="none" xmlns="http://www.w3.org/2000/svg">
<path d="M7 32H3C2.20435 32 1.44129 31.6839 0.87868 31.1213C0.316071 30.5587 0 29.7956 0 29V11C0 10.2044 0.316071 9.44129 0.87868 8.87868C1.44129 8.31607 2.20435 8 3 8H7C7.79565 8 8.55871 8.31607 9.12132 8.87868C9.68393 9.44129 10 10.2044 10 11V29C10 29.7956 9.68393 30.5587 9.12132 31.1213C8.55871 31.6839 7.79565 32 7 32ZM3 10C2.73478 10 2.48043 10.1054 2.29289 10.2929C2.10536 10.4804 2 10.7348 2 11V29C2 29.2652 2.10536 29.5196 2.29289 29.7071C2.48043 29.8946 2.73478 30 3 30H7C7.26522 30 7.51957 29.8946 7.70711 29.7071C7.89464 29.5196 8 29.2652 8 29V11C8 10.7348 7.89464 10.4804 7.70711 10.2929C7.51957 10.1054 7.26522 10 7 10H3Z" fill="#384685"/>
<path d="M55 32H51C50.2044 32 49.4413 31.6839 48.8787 31.1213C48.3161 30.5587 48 29.7956 48 29V11C48 10.2044 48.3161 9.44129 48.8787 8.87868C49.4413 8.31607 50.2044 8 51 8H55C55.7956 8 56.5587 8.31607 57.1213 8.87868C57.6839 9.44129 58 10.2044 58 11V29C58 29.7956 57.6839 30.5587 57.1213 31.1213C56.5587 31.6839 55.7956 32 55 32ZM51 10C50.7348 10 50.4804 10.1054 50.2929 10.2929C50.1054 10.4804 50 10.7348 50 11V29C50 29.2652 50.1054 29.5196 50.2929 29.7071C50.4804 29.8946 50.7348 30 51 30H55C55.2652 30 55.5196 29.8946 55.7071 29.7071C55.8946 29.5196 56 29.2652 56 29V11C56 10.7348 55.8946 10.4804 55.7071 10.2929C55.5196 10.1054 55.2652 10 55 10H51Z" fill="#384685"/>
<path d="M47 32H11C10.2044 32 9.44129 31.6839 8.87868 31.1213C8.31607 30.5587 8 29.7956 8 29V25C8 24.2044 8.31607 23.4413 8.87868 22.8787C9.44129 22.3161 10.2044 22 11 22H47C47.7957 22 48.5587 22.3161 49.1213 22.8787C49.6839 23.4413 50 24.2044 50 25V29C50 29.7956 49.6839 30.5587 49.1213 31.1213C48.5587 31.6839 47.7957 32 47 32ZM11 24C10.7348 24 10.4804 24.1054 10.2929 24.2929C10.1054 24.4804 10 24.7348 10 25V29C10 29.2652 10.1054 29.5196 10.2929 29.7071C10.4804 29.8946 10.7348 30 11 30H47C47.2652 30 47.5196 29.8946 47.7071 29.7071C47.8946 29.5196 48 29.2652 48 29V25C48 24.7348 47.8946 24.4804 47.7071 24.2929C47.5196 24.1054 47.2652 24 47 24H11Z" fill="#384685"/>
<path d="M30 24H8V20C8 18.6739 8.52678 17.4021 9.46447 16.4645C10.4021 15.5268 11.6739 15 13 15H25C26.3261 15 27.5979 15.5268 28.5355 16.4645C29.4732 17.4021 30 18.6739 30 20V24ZM10 22H28V20C28 19.2044 27.6839 18.4413 27.1213 17.8787C26.5587 17.3161 25.7956 17 25 17H13C12.2044 17 11.4413 17.3161 10.8787 17.8787C10.3161 18.4413 10 19.2044 10 20V22Z" fill="#384685"/>
<path d="M50 24H28V20C28 18.6739 28.5268 17.4021 29.4645 16.4645C30.4021 15.5268 31.6739 15 33 15H45C46.3261 15 47.5979 15.5268 48.5355 16.4645C49.4732 17.4021 50 18.6739 50 20V24ZM30 22H48V20C48 19.2044 47.6839 18.4413 47.1213 17.8787C46.5587 17.3161 45.7956 17 45 17H33C32.2044 17 31.4413 17.3161 30.8787 17.8787C30.3161 18.4413 30 19.2044 30 20V22Z" fill="#384685"/>
<path d="M30 20H28C28 19.2044 27.6839 18.4413 27.1213 17.8787C26.5587 17.3161 25.7956 17 25 17H13C12.2044 17 11.4413 17.3161 10.8787 17.8787C10.3161 18.4413 10 19.2044 10 20H8V11C8 10.7348 7.89464 10.4804 7.70711 10.2929C7.51957 10.1054 7.26522 10 7 10H6V5C6 3.67392 6.52678 2.40215 7.46447 1.46447C8.40215 0.526784 9.67392 0 11 0H25C26.3261 0 27.5979 0.526784 28.5355 1.46447C29.4732 2.40215 30 3.67392 30 5V20ZM13 15H25C26.0819 15 27.1345 15.3509 28 16V5C28 4.20435 27.6839 3.44129 27.1213 2.87868C26.5587 2.31607 25.7956 2 25 2H11C10.2044 2 9.44129 2.31607 8.87868 2.87868C8.31607 3.44129 8 4.20435 8 5V8.17C8.58516 8.37688 9.09174 8.76017 9.44994 9.26702C9.80814 9.77387 10.0003 10.3793 10 11V16C10.8655 15.3509 11.9181 15 13 15Z" fill="#384685"/>
<path d="M50 20H48C48 19.2044 47.6839 18.4413 47.1213 17.8787C46.5587 17.3161 45.7956 17 45 17H33C32.2044 17 31.4413 17.3161 30.8787 17.8787C30.3161 18.4413 30 19.2044 30 20H28V5C28 3.67392 28.5268 2.40215 29.4645 1.46447C30.4021 0.526784 31.6739 0 33 0H47C48.3261 0 49.5979 0.526784 50.5355 1.46447C51.4732 2.40215 52 3.67392 52 5V10H51C50.7348 10 50.4804 10.1054 50.2929 10.2929C50.1054 10.4804 50 10.7348 50 11V20ZM33 15H45C46.0819 15 47.1345 15.3509 48 16V11C47.9997 10.3793 48.1919 9.77387 48.5501 9.26702C48.9083 8.76017 49.4148 8.37688 50 8.17V5C50 4.20435 49.6839 3.44129 49.1213 2.87868C48.5587 2.31607 47.7956 2 47 2H33C32.2044 2 31.4413 2.31607 30.8787 2.87868C30.3161 3.44129 30 4.20435 30 5V16C30.8655 15.3509 31.9181 15 33 15Z" fill="#384685"/>
<path d="M30 19H28V24H30V19Z" fill="#384685"/>
<path d="M13.5 10C14.3284 10 15 9.32843 15 8.5C15 7.67157 14.3284 7 13.5 7C12.6716 7 12 7.67157 12 8.5C12 9.32843 12.6716 10 13.5 10Z" fill="#384685"/>
<path d="M22.5 10C23.3284 10 24 9.32843 24 8.5C24 7.67157 23.3284 7 22.5 7C21.6716 7 21 7.67157 21 8.5C21 9.32843 21.6716 10 22.5 10Z" fill="#384685"/>
<path d="M35.5 10C36.3284 10 37 9.32843 37 8.5C37 7.67157 36.3284 7 35.5 7C34.6716 7 34 7.67157 34 8.5C34 9.32843 34.6716 10 35.5 10Z" fill="#384685"/>
<path d="M44.5 10C45.3284 10 46 9.32843 46 8.5C46 7.67157 45.3284 7 44.5 7C43.6716 7 43 7.67157 43 8.5C43 9.32843 43.6716 10 44.5 10Z" fill="#384685"/>
</svg>
