<svg width="49" height="39" viewBox="0 0 49 39" fill="none" xmlns="http://www.w3.org/2000/svg">
<path d="M16.0517 38.0172H0V0H16.0517V38.0172ZM1.68966 36.3276H14.3621V1.68966H1.68966V36.3276Z" fill="#384685"/>
<path d="M34.6391 38.0172H14.3633V0H34.6391V38.0172ZM16.0529 36.3276H32.9495V1.68966H16.0529V36.3276Z" fill="#384685"/>
<path d="M31.2594 21.1208H17.7422V3.37939H31.2594V21.1208ZM19.4318 19.4311H29.5698V5.06905H19.4318V19.4311Z" fill="#384685"/>
<path d="M34.6391 38.0171H14.3633V29.5688H34.6391V38.0171ZM16.0529 36.3275H32.9495V31.2585H16.0529V36.3275Z" fill="#384685"/>
<path d="M34.6391 31.2588H14.3633V22.8105H34.6391V31.2588ZM16.0529 29.5692H32.9495V24.5002H16.0529V29.5692Z" fill="#384685"/>
<path d="M49.0009 38.0172H32.9492V0H49.0009V38.0172ZM34.6389 36.3276H47.3113V1.68966H34.6389V36.3276Z" fill="#384685"/>
<path d="M26.1879 26.1895H22.8086V27.8791H26.1879V26.1895Z" fill="#384685"/>
<path d="M26.1879 32.9482H22.8086V34.6379H26.1879V32.9482Z" fill="#384685"/>
<path d="M25.589 7.85236L20.9414 12.5L22.1362 13.6948L26.7838 9.04713L25.589 7.85236Z" fill="#384685"/>
<path d="M25.5938 12.9175L22.6367 15.8745L23.8315 17.0693L26.7885 14.1122L25.5938 12.9175Z" fill="#384685"/>
<path d="M12.674 17.7412H10.9844V21.1205H12.674V17.7412Z" fill="#384685"/>
<path d="M38.0178 17.7412H36.3281V21.1205H38.0178V17.7412Z" fill="#384685"/>
</svg>
