<svg width="49" height="49" viewBox="0 0 49 49" fill="none" xmlns="http://www.w3.org/2000/svg">
<path d="M46.7031 42.1094H34.4531V29.0938H46.7031V42.1094ZM35.9844 40.5781H45.1719V30.625H35.9844V40.5781Z" fill="#384685"/>
<path d="M46.7031 34.4531H34.4531V35.9844H46.7031V34.4531Z" fill="#384685"/>
<path d="M42.1094 36.75H39.0469V38.2812H42.1094V36.75Z" fill="#384685"/>
<path d="M42.1094 31.3906H39.0469V32.9219H42.1094V31.3906Z" fill="#384685"/>
<path d="M32.9219 42.1094H31.3906V36.75H3.82812V42.1094H2.29688V35.2188H32.9219V42.1094Z" fill="#384685"/>
<path d="M32.9219 36.75H2.29688V30.625H32.9219V36.75ZM3.82812 35.2188H31.3906V32.1562H3.82812V35.2188Z" fill="#384685"/>
<path d="M32.1562 32.1562H3.0625V29.3311C3.06854 28.0517 3.57947 26.8264 4.48417 25.9217C5.38887 25.017 6.61417 24.506 7.89359 24.5H27.3252C28.6052 24.504 29.8317 25.0143 30.7368 25.9195C31.6419 26.8246 32.1522 28.0511 32.1562 29.3311V32.1562ZM4.59375 30.625H30.625V29.3311C30.623 28.4565 30.2747 27.6184 29.6563 27C29.0379 26.3816 28.1997 26.0333 27.3252 26.0312H7.89359C7.14112 26.0385 6.41502 26.3094 5.84172 26.7969C5.45704 27.0987 5.14516 27.4832 4.92914 27.9219C4.71312 28.3605 4.5985 28.8422 4.59375 29.3311V30.625Z" fill="#384685"/>
<path d="M16.8438 26.0312H7.65625V22.2031C7.65625 21.594 7.89824 21.0097 8.32899 20.579C8.75974 20.1482 9.34396 19.9063 9.95312 19.9062H14.5469C15.156 19.9063 15.7403 20.1482 16.171 20.579C16.6018 21.0097 16.8438 21.594 16.8438 22.2031V26.0312ZM9.1875 24.5H15.3125V22.2031C15.3125 22.0001 15.2318 21.8053 15.0883 21.6617C14.9447 21.5182 14.7499 21.4375 14.5469 21.4375H9.95312C9.75007 21.4375 9.55533 21.5182 9.41175 21.6617C9.26816 21.8053 9.1875 22.0001 9.1875 22.2031V24.5Z" fill="#384685"/>
<path d="M27.5625 26.0312H18.375V22.2031C18.375 21.594 18.617 21.0097 19.0477 20.579C19.4785 20.1482 20.0627 19.9063 20.6719 19.9062H25.2656C25.8748 19.9063 26.459 20.1482 26.8898 20.579C27.3205 21.0097 27.5625 21.594 27.5625 22.2031V26.0312ZM19.9062 24.5H26.0312V22.2031C26.0312 22.0001 25.9506 21.8053 25.807 21.6617C25.6634 21.5182 25.4687 21.4375 25.2656 21.4375H20.6719C20.4688 21.4375 20.2741 21.5182 20.1305 21.6617C19.9869 21.8053 19.9062 22.0001 19.9062 22.2031V24.5Z" fill="#384685"/>
<path d="M30.625 27.7692L29.377 26.7969C28.8037 26.3094 28.0776 26.0385 27.3252 26.0312H7.89359C7.14112 26.0385 6.41502 26.3094 5.84172 26.7969L4.59375 27.7692V16.0781H30.625V27.7692ZM7.89359 24.5H27.3252C27.9307 24.4992 28.5309 24.6135 29.0938 24.8369V17.6094H6.125V24.8369C6.68785 24.6135 7.28804 24.4992 7.89359 24.5Z" fill="#384685"/>
<path d="M6.125 14.5469H4.59375V17.6094H6.125V14.5469Z" fill="#384685"/>
<path d="M30.625 14.5469H29.0938V17.6094H30.625V14.5469Z" fill="#384685"/>
<path d="M40.5781 30.6249C39.7659 30.6249 38.9869 30.3023 38.4126 29.728C37.8383 29.1536 37.5156 28.3747 37.5156 27.5624V26.9806C37.5153 26.5783 37.5943 26.1799 37.748 25.8081C37.9017 25.4363 38.1271 25.0985 38.4114 24.8138L40.5781 22.6548L42.7448 24.8138C43.0292 25.0985 43.2546 25.4363 43.4083 25.8081C43.562 26.1799 43.6409 26.5783 43.6406 26.9806V27.5624C43.6406 28.3747 43.318 29.1536 42.7436 29.728C42.1693 30.3023 41.3904 30.6249 40.5781 30.6249ZM40.5781 24.8138L39.4986 25.901C39.211 26.1869 39.0486 26.5751 39.0469 26.9806V27.5624C39.0469 27.9686 39.2082 28.358 39.4954 28.6452C39.7825 28.9324 40.172 29.0937 40.5781 29.0937C40.9842 29.0937 41.3737 28.9324 41.6609 28.6452C41.9481 28.358 42.1094 27.9686 42.1094 27.5624V26.9806C42.1077 26.5751 41.9452 26.1869 41.6577 25.901L40.5781 24.8138Z" fill="#384685"/>
<path d="M41.3438 21.4375H39.8125V24.5H41.3438V21.4375Z" fill="#384685"/>
<path d="M45.2733 22.9688H35.8867L36.8438 15.3125H44.3163L45.2733 22.9688ZM37.617 21.4375H43.543L42.9688 16.8438H38.1913L37.617 21.4375Z" fill="#384685"/>
</svg>
