<svg width="49" height="49" viewBox="0 0 49 49" fill="none" xmlns="http://www.w3.org/2000/svg">
<path d="M46.7031 1.53125H8.42188C8.21882 1.53125 8.02408 1.61191 7.8805 1.7555C7.73691 1.89908 7.65625 2.09382 7.65625 2.29688V4.59375H5.35938C5.15632 4.59375 4.96158 4.67441 4.818 4.818C4.67441 4.96158 4.59375 5.15632 4.59375 5.35938V10.7188H3.0625C2.65639 10.7188 2.26691 10.8801 1.97974 11.1672C1.69258 11.4544 1.53125 11.8439 1.53125 12.25V18.375C1.53125 18.7811 1.69258 19.1706 1.97974 19.4578C2.26691 19.7449 2.65639 19.9062 3.0625 19.9062H4.59375V46.7031C4.59375 46.9062 4.67441 47.1009 4.818 47.2445C4.96158 47.3881 5.15632 47.4688 5.35938 47.4688H46.7031C46.9062 47.4688 47.1009 47.3881 47.2445 47.2445C47.3881 47.1009 47.4688 46.9062 47.4688 46.7031V2.29688C47.4688 2.09382 47.3881 1.89908 47.2445 1.7555C47.1009 1.61191 46.9062 1.53125 46.7031 1.53125ZM4.59375 18.375H3.0625V12.25H4.59375V18.375ZM9.1875 3.0625H45.9375V4.59375H9.1875V3.0625ZM42.875 42.875H28.3281V6.125H42.875V42.875ZM10.7188 6.125V9.1875H9.1875V6.125H10.7188ZM26.7969 6.125V15.3125H12.25V13.7812H13.0156C13.2187 13.7812 13.4134 13.7006 13.557 13.557C13.7006 13.4134 13.7812 13.2187 13.7812 13.0156V9.95312C13.7812 9.75007 13.7006 9.55533 13.557 9.41175C13.4134 9.26816 13.2187 9.1875 13.0156 9.1875H12.25V6.125H26.7969ZM9.1875 10.7188H12.25V12.25H9.1875V10.7188ZM26.7969 18.375H12.25V16.8438H26.7969V18.375ZM12.25 19.9062H26.7969V29.0938H12.25V19.9062ZM12.25 30.625H26.7969V32.1562H12.25V30.625ZM9.1875 13.7812H10.7188V35.2188H9.1875V13.7812ZM9.1875 36.75H12.25V38.2812H9.1875V36.75ZM12.25 39.8125H13.0156C13.2187 39.8125 13.4134 39.7318 13.557 39.5883C13.7006 39.4447 13.7812 39.2499 13.7812 39.0469V35.9844C13.7812 35.7813 13.7006 35.5866 13.557 35.443C13.4134 35.2994 13.2187 35.2188 13.0156 35.2188H12.25V33.6875H26.7969V42.875H12.25V39.8125ZM6.125 6.125H7.65625V45.9375H6.125V6.125ZM9.1875 39.8125H10.7188V45.9375H9.1875V39.8125ZM12.25 44.4062H26.7969V45.9375H12.25V44.4062ZM28.3281 44.4062H42.875V45.9375H28.3281V44.4062ZM45.9375 45.9375H44.4062V6.125H45.9375V45.9375Z" fill="#384685"/>
<path d="M31.3906 19.9062H34.4531C34.6562 19.9062 34.8509 19.8256 34.9945 19.682C35.1381 19.5384 35.2188 19.3437 35.2188 19.1406V11.4844C35.2188 11.2813 35.1381 11.0866 34.9945 10.943C34.8509 10.7994 34.6562 10.7188 34.4531 10.7188H31.3906C31.1876 10.7188 30.9928 10.7994 30.8492 10.943C30.7057 11.0866 30.625 11.2813 30.625 11.4844V19.1406C30.625 19.3437 30.7057 19.5384 30.8492 19.682C30.9928 19.8256 31.1876 19.9062 31.3906 19.9062ZM32.1562 12.25H33.6875V18.375H32.1562V12.25Z" fill="#384685"/>
</svg>
