<svg width="20" height="20" viewBox="0 0 20 20" fill="none" xmlns="http://www.w3.org/2000/svg">
<path d="M15.3567 13.7299H8.88686C8.41409 13.7332 7.95302 13.5814 7.5727 13.2974C7.19238 13.0133 6.9133 12.6123 6.77725 12.1544L3.67359 1.98606C3.62137 1.81443 3.51588 1.66438 3.37273 1.55813C3.22958 1.45188 3.0564 1.39508 2.87884 1.39616H0.691458C0.600814 1.39632 0.511027 1.37843 0.427221 1.34349C0.343416 1.30856 0.267235 1.25728 0.203027 1.19258C0.0733542 1.0619 0.000323366 0.884476 1.07126e-06 0.699343C-0.000321224 0.51421 0.0720914 0.33653 0.201309 0.20539C0.330526 0.0742506 0.505964 0.000394124 0.689028 6.8185e-05H2.87641C3.3496 -0.00368799 3.81123 0.147838 4.19204 0.431909C4.57284 0.71598 4.85229 1.11728 4.98846 1.57559L5.6228 3.65498H17.7749C18.142 3.6554 18.5031 3.74818 18.8258 3.92497C19.1486 4.10175 19.4227 4.35698 19.6236 4.66764C19.8244 4.9783 19.9457 5.33463 19.9764 5.7045C20.0071 6.07438 19.9463 6.44617 19.7995 6.78635L17.3691 12.3928C17.1975 12.7887 16.916 13.1257 16.5588 13.363C16.2016 13.6003 15.784 13.7278 15.3567 13.7299ZM6.05298 5.05107L8.09454 11.744C8.14621 11.9156 8.25116 12.0659 8.39385 12.1726C8.53655 12.2793 8.70941 12.3367 8.88686 12.3363H15.3567C15.5168 12.3372 15.6738 12.2913 15.8088 12.2041C15.9437 12.1169 16.0509 11.9921 16.1174 11.8447L18.5478 6.23824C18.6032 6.11053 18.6262 5.97086 18.6148 5.83189C18.6033 5.69291 18.5578 5.55902 18.4822 5.44235C18.4067 5.32568 18.3035 5.22992 18.1822 5.16374C18.0608 5.09756 17.925 5.06306 17.7871 5.06336L6.05298 5.05107Z" fill="#384685"/>
<path d="M8.93626 19.9999C8.4969 19.9999 8.06742 19.8681 7.70211 19.6213C7.3368 19.3744 7.05207 19.0236 6.88394 18.6131C6.71581 18.2026 6.67181 17.7509 6.75753 17.3151C6.84324 16.8793 7.05481 16.479 7.36548 16.1648C7.67615 15.8506 8.07197 15.6367 8.50288 15.55C8.93379 15.4633 9.38044 15.5078 9.78635 15.6778C10.1923 15.8479 10.5392 16.1358 10.7833 16.5053C11.0274 16.8747 11.1577 17.309 11.1577 17.7534C11.157 18.349 10.9228 18.92 10.5063 19.3412C10.0899 19.7623 9.52521 19.9992 8.93626 19.9999ZM8.93626 16.9029C8.76994 16.9029 8.60735 16.9528 8.46906 17.0463C8.33077 17.1397 8.22299 17.2725 8.15934 17.4279C8.09569 17.5833 8.07904 17.7543 8.11149 17.9193C8.14393 18.0842 8.22402 18.2358 8.34163 18.3547C8.45924 18.4737 8.60908 18.5546 8.7722 18.5875C8.93532 18.6203 9.10441 18.6034 9.25807 18.5391C9.41173 18.4747 9.54306 18.3657 9.63546 18.2258C9.72786 18.086 9.77718 17.9216 9.77718 17.7534C9.77654 17.528 9.68774 17.3121 9.53017 17.1527C9.37261 16.9934 9.15909 16.9036 8.93626 16.9029Z" fill="#384685"/>
<path d="M15.1784 19.9999C14.7391 19.9999 14.3096 19.8681 13.9443 19.6213C13.579 19.3744 13.2943 19.0236 13.1261 18.6131C12.958 18.2026 12.914 17.7509 12.9997 17.3151C13.0854 16.8793 13.297 16.479 13.6077 16.1648C13.9183 15.8506 14.3142 15.6367 14.7451 15.55C15.176 15.4633 15.6226 15.5078 16.0285 15.6778C16.4345 15.8479 16.7814 16.1358 17.0255 16.5053C17.2696 16.8747 17.3999 17.309 17.3999 17.7534C17.3992 18.349 17.165 18.92 16.7485 19.3412C16.3321 19.7623 15.7674 19.9992 15.1784 19.9999ZM15.1784 16.9029C15.0121 16.9029 14.8495 16.9528 14.7112 17.0463C14.573 17.1397 14.4652 17.2725 14.4015 17.4279C14.3379 17.5833 14.3212 17.7543 14.3537 17.9193C14.3861 18.0842 14.4662 18.2358 14.5838 18.3547C14.7014 18.4737 14.8513 18.5546 15.0144 18.5875C15.1775 18.6203 15.3466 18.6034 15.5003 18.5391C15.6539 18.4747 15.7852 18.3657 15.8777 18.2258C15.9701 18.086 16.0194 17.9216 16.0194 17.7534C16.0187 17.528 15.9299 17.3121 15.7724 17.1527C15.6148 16.9934 15.4013 16.9036 15.1784 16.9029Z" fill="#384685"/>
</svg>
