<svg width="20" height="20" viewBox="0 0 20 20" fill="none" xmlns="http://www.w3.org/2000/svg">
<path d="M13.5652 20C15.1843 19.9998 16.6322 19.4564 17.7524 18.3355L19.3882 16.6987C20.204 15.882 20.204 14.5529 19.388 13.7366L16.9025 11.2495C16.4773 10.8237 15.8902 10.6028 15.2887 10.64C14.6884 10.6785 14.1333 10.9739 13.7657 11.4501L12.1537 13.5391C10.9811 12.9091 9.88655 12.0893 8.89583 11.0977C7.91019 10.1114 7.09382 9.02214 6.46582 7.85656L8.55865 6.23939C9.03453 5.87177 9.32972 5.3165 9.3682 4.71604C9.40672 4.1154 9.18485 3.52661 8.75936 3.10083L6.27412 0.613659C5.8788 0.217851 5.35316 0 4.79385 0C4.23477 0 3.70915 0.217839 3.31403 0.613659L2.01295 1.91518C1.87869 2.02928 1.76709 2.13148 1.66342 2.235C-1.36643 5.26648 -0.174042 10.6942 4.56225 15.4335C7.54758 18.4211 10.8056 19.9997 13.565 19.9997L13.5652 20ZM2.66067 3.2339C2.7518 3.14294 2.84776 3.05769 2.94549 2.97554C2.96068 2.96254 2.97543 2.94911 2.98974 2.93479L4.31172 1.61212C4.44049 1.48305 4.61173 1.41212 4.79376 1.41212C4.97602 1.41212 5.14726 1.48305 5.27625 1.61212L7.76149 4.09929C7.90214 4.24026 7.97279 4.42726 7.96002 4.62572C7.94726 4.82417 7.85349 5.00038 7.69611 5.12219L5.32131 6.95719C4.94801 7.24573 4.83069 7.7594 5.04222 8.1792C5.75694 9.59745 6.71767 10.9153 7.89772 12.0961C9.083 13.2824 10.4072 14.2474 11.8338 14.9639C12.2524 15.174 12.765 15.0566 13.0527 14.684L14.8821 12.3133C15.0036 12.1558 15.1799 12.062 15.3782 12.0494C15.5772 12.0349 15.7634 12.1073 15.9041 12.2479L18.3895 14.735C18.6554 15.0011 18.6552 15.4343 18.3895 15.7004L16.7539 17.3372C14.3113 19.7808 9.70811 18.5881 5.55919 14.4361C1.411 10.284 0.218901 5.67754 2.66075 3.23373L2.66067 3.2339Z" fill="#384685"/>
</svg>
