<svg width="49" height="49" viewBox="0 0 49 49" fill="none" xmlns="http://www.w3.org/2000/svg">
<path d="M43.6406 44.4062H5.35938V23.7344H43.6406V44.4062ZM6.89062 42.875H42.1094V25.2656H6.89062V42.875Z" fill="#384685"/>
<path d="M40.5781 12.25H26.7969V9.47844L29.8594 7.94719V4.59375H37.5156V7.94719L40.5781 9.47844V12.25ZM28.3281 10.7188H39.0469V10.4278L35.9844 8.89656V6.125H31.3906V8.89656L28.3281 10.4278V10.7188Z" fill="#384685"/>
<path d="M40.5781 40.5781H26.7969V30.625H40.5781V40.5781ZM28.3281 39.0469H39.0469V32.1562H28.3281V39.0469Z" fill="#384685"/>
<path d="M34.0703 29.0938C34.7046 29.0938 35.2188 28.5796 35.2188 27.9453C35.2188 27.311 34.7046 26.7969 34.0703 26.7969C33.436 26.7969 32.9219 27.311 32.9219 27.9453C32.9219 28.5796 33.436 29.0938 34.0703 29.0938Z" fill="#384685"/>
<path d="M37.8984 29.0938C38.5327 29.0938 39.0469 28.5796 39.0469 27.9453C39.0469 27.311 38.5327 26.7969 37.8984 26.7969C37.2642 26.7969 36.75 27.311 36.75 27.9453C36.75 28.5796 37.2642 29.0938 37.8984 29.0938Z" fill="#384685"/>
<path d="M31.3906 25.2656H29.8594V21.4375H32.9219V22.9688H31.3906V25.2656Z" fill="#384685"/>
<path d="M37.5156 25.2656H35.9844V22.9688H34.4531V21.4375H37.5156V25.2656Z" fill="#384685"/>
<path d="M24.5 41.3438H8.42188V27.5625H24.5V41.3438ZM9.95312 39.8125H22.9688V29.0938H9.95312V39.8125Z" fill="#384685"/>
<path d="M24.5 33.6875H8.42188V35.2188H24.5V33.6875Z" fill="#384685"/>
<path d="M17.6094 30.625H14.5469V32.1562H17.6094V30.625Z" fill="#384685"/>
<path d="M17.6094 36.75H14.5469V38.2812H17.6094V36.75Z" fill="#384685"/>
<path d="M35.2188 32.9219H32.1562V34.4531H35.2188V32.9219Z" fill="#384685"/>
<path d="M22.9688 6.89062H17.6094V8.42188H22.9688V6.89062Z" fill="#384685"/>
<path d="M19.1406 6.89062H9.1875V8.42188H19.1406V6.89062Z" fill="#384685"/>
<path d="M10.7188 6.89062H6.89062V8.42188H10.7188V6.89062Z" fill="#384685"/>
<path d="M10.7188 5.35938H9.1875V16.8438H10.7188V5.35938Z" fill="#384685"/>
<path d="M19.1406 5.35938H17.6094V13.0156H19.1406V5.35938Z" fill="#384685"/>
<path d="M9.95313 19.9063C9.49885 19.9063 9.05477 19.7715 8.67705 19.5192C8.29933 19.2668 8.00494 18.9081 7.83109 18.4884C7.65725 18.0687 7.61176 17.6068 7.70038 17.1613C7.78901 16.7157 8.00777 16.3065 8.32899 15.9852C8.65021 15.664 9.05948 15.4453 9.50503 15.3566C9.95058 15.268 10.4124 15.3135 10.8321 15.4873C11.2518 15.6612 11.6105 15.9556 11.8629 16.3333C12.1153 16.711 12.25 17.1551 12.25 17.6094C12.25 18.2185 12.008 18.8028 11.5773 19.2335C11.1465 19.6643 10.5623 19.9063 9.95313 19.9063ZM9.95313 16.8438C9.8017 16.8438 9.65367 16.8887 9.52777 16.9728C9.40186 17.0569 9.30373 17.1765 9.24578 17.3164C9.18783 17.4563 9.17267 17.6102 9.20221 17.7587C9.23175 17.9073 9.30467 18.0437 9.41175 18.1508C9.51882 18.2578 9.65524 18.3307 9.80376 18.3603C9.95228 18.3898 10.1062 18.3747 10.2461 18.3167C10.386 18.2588 10.5056 18.1606 10.5897 18.0347C10.6738 17.9088 10.7188 17.7608 10.7188 17.6094C10.7188 17.4063 10.6381 17.2116 10.4945 17.068C10.3509 16.9244 10.1562 16.8438 9.95313 16.8438Z" fill="#384685"/>
<path d="M18.375 20.6719C17.4664 20.6719 16.5783 20.4025 15.8229 19.8977C15.0674 19.3929 14.4786 18.6755 14.1309 17.8361C13.7832 16.9967 13.6923 16.073 13.8695 15.1819C14.0468 14.2908 14.4843 13.4723 15.1267 12.8299C15.7692 12.1874 16.5877 11.7499 17.4788 11.5726C18.3699 11.3954 19.2936 11.4864 20.133 11.8341C20.9724 12.1817 21.6898 12.7705 22.1946 13.526C22.6993 14.2814 22.9688 15.1696 22.9688 16.0781C22.9688 17.2965 22.4848 18.4649 21.6233 19.3264C20.7618 20.1879 19.5933 20.6719 18.375 20.6719ZM18.375 13.0156C17.7693 13.0156 17.1772 13.1952 16.6736 13.5318C16.1699 13.8683 15.7774 14.3466 15.5456 14.9062C15.3138 15.4658 15.2532 16.0815 15.3713 16.6756C15.4895 17.2697 15.7812 17.8153 16.2095 18.2436C16.6378 18.6719 17.1835 18.9636 17.7775 19.0818C18.3716 19.1999 18.9874 19.1393 19.547 18.9075C20.1066 18.6757 20.5849 18.2832 20.9214 17.7796C21.2579 17.2759 21.4375 16.6838 21.4375 16.0781C21.4375 15.2659 21.1148 14.4869 20.5405 13.9126C19.9662 13.3383 19.1872 13.0156 18.375 13.0156Z" fill="#384685"/>
<path d="M44.4062 23.7344H4.59375V25.2656H44.4062V23.7344Z" fill="#384685"/>
</svg>
