<svg width="49" height="49" viewBox="0 0 49 49" fill="none" xmlns="http://www.w3.org/2000/svg">
<path d="M1.88462 49.0001H0L0.0282694 46.8893L2.07308 37.6924H16.0192V49.0001H14.1346V39.577H3.58077L1.88462 47.2003V49.0001Z" fill="#384685"/>
<path d="M16.9615 39.5768H1.88462V34.9313L0.103654 23.0865C0.0362756 22.8408 0.00142669 22.5873 0 22.3326V20.7307C0.00049146 20.1719 0.166554 19.6259 0.477213 19.1614C0.787873 18.697 1.2292 18.3351 1.74544 18.1213C2.26169 17.9075 2.8297 17.8516 3.37774 17.9604C3.92579 18.0693 4.42927 18.3381 4.82462 18.733C5.35492 19.2626 5.65319 19.9812 5.65385 20.7307V22.2666C5.63956 22.3572 5.63956 22.4494 5.65385 22.5399V22.6813L7.35 33.857L14.1346 33.923C14.8844 33.923 15.6034 34.2208 16.1336 34.751C16.6637 35.2811 16.9615 36.0002 16.9615 36.7499V39.5768ZM3.76923 37.6922H15.0769V36.7499C15.0769 36.5 14.9776 36.2603 14.8009 36.0836C14.6242 35.9069 14.3845 35.8076 14.1346 35.8076L5.78577 35.7511L3.85404 23.0393C3.78721 22.7871 3.75238 22.5275 3.75038 22.2666V20.7307C3.75038 20.4808 3.65111 20.2411 3.47439 20.0644C3.29767 19.8877 3.05799 19.7884 2.80808 19.7884C2.55816 19.7884 2.31848 19.8877 2.14176 20.0644C1.96505 20.2411 1.86577 20.4808 1.86577 20.7307V22.3326C1.85651 22.4272 1.86287 22.5227 1.88462 22.6153V22.7566L3.76923 34.8653V37.6922Z" fill="#384685"/>
<path d="M47.1151 49.0001V47.2003L45.4189 39.577H34.8651V49.0001H32.9805V37.6924H46.9266L48.9997 47.0966V49.0001H47.1151Z" fill="#384685"/>
<path d="M47.116 39.5769H32.0391V36.75C32.0391 36.0002 32.3369 35.2812 32.8671 34.7511C33.3972 34.2209 34.1162 33.9231 34.866 33.9231L41.6035 33.876L43.3279 22.5683C43.358 22.4803 43.3739 22.388 43.375 22.295V20.7308C43.3729 20.3587 43.4442 19.9899 43.5849 19.6455C43.7255 19.3011 43.9328 18.9878 44.1948 18.7236C44.5917 18.3346 45.0944 18.0712 45.6401 17.9663C46.1858 17.8615 46.7504 17.9197 47.2632 18.1339C47.7759 18.3481 48.2142 18.7086 48.5233 19.1705C48.8323 19.6323 48.9983 20.1751 49.0006 20.7308V22.3327C48.9992 22.5874 48.9643 22.8409 48.8969 23.0865L47.116 34.9313V39.5769ZM33.9237 37.6923H45.2314V34.724L47.116 22.6154C47.1304 22.5249 47.1304 22.4326 47.116 22.3421V20.7308C47.116 20.4808 47.0167 20.2412 46.84 20.0645C46.6633 19.8877 46.4236 19.7885 46.1737 19.7885C45.9238 19.7885 45.6841 19.8877 45.5074 20.0645C45.3306 20.2412 45.2314 20.4808 45.2314 20.7308V22.2667C45.23 22.5277 45.1951 22.7873 45.1277 23.0394L43.2431 35.7417L34.866 35.8077C34.6161 35.8077 34.3764 35.907 34.1997 36.0837C34.023 36.2604 33.9237 36.5001 33.9237 36.75V37.6923Z" fill="#384685"/>
<path d="M36.75 32.0386H12.25V26.3848H36.75V32.0386ZM14.1346 30.154H34.8654V28.2694H14.1346V30.154Z" fill="#384685"/>
<path d="M40.5189 26.3848H8.48047V28.2694H40.5189V26.3848Z" fill="#384685"/>
<path d="M10.3644 48.9999H8.47978V48.0576C8.42504 45.0212 9.06989 42.013 10.3644 39.2658C11.7021 36.4195 12.3479 33.2972 12.249 30.1537V29.2114H14.1336V30.1537C14.2309 33.5498 13.5339 36.9217 12.0982 40.0008C10.9049 42.5162 10.3114 45.274 10.3644 48.0576V48.9999Z" fill="#384685"/>
<path d="M40.5183 48.9999H38.6336V48.0576C38.6866 45.274 38.0931 42.5162 36.8998 40.0008C35.4641 36.9217 34.7671 33.5498 34.8644 30.1537V29.2114H36.749V30.1537C36.6502 33.2972 37.2959 36.4195 38.6336 39.2658C39.9281 42.013 40.573 45.0212 40.5183 48.0576V48.9999Z" fill="#384685"/>
<path d="M32.0379 10.3653H16.9609V9.42296C16.9609 8.17339 17.4573 6.97499 18.3409 6.0914C19.2245 5.20782 20.4229 4.71143 21.6725 4.71143H27.3263C28.5759 4.71143 29.7743 5.20782 30.6579 6.0914C31.5415 6.97499 32.0379 8.17339 32.0379 9.42296V10.3653ZM19.0057 8.48066H29.9931C29.7981 7.92926 29.4369 7.4519 28.9593 7.11436C28.4817 6.77683 27.9112 6.59573 27.3263 6.59604H21.6725C21.2998 6.59513 20.9306 6.66792 20.5861 6.81023C20.2417 6.95255 19.9287 7.16157 19.6654 7.42527C19.3727 7.72596 19.1478 8.08582 19.0057 8.48066Z" fill="#384685"/>
<path d="M24.4988 13.1925C23.7491 13.1925 23.03 12.8947 22.4999 12.3645C21.9697 11.8344 21.6719 11.1153 21.6719 10.3656C21.6725 9.86545 21.8058 9.37446 22.0582 8.94269L22.3315 8.48096H26.6661L26.9394 8.94269C27.1918 9.37446 27.3251 9.86545 27.3257 10.3656C27.3257 11.1153 27.0279 11.8344 26.4977 12.3645C25.9676 12.8947 25.2485 13.1925 24.4988 13.1925ZM23.5565 10.3656C23.5565 10.6155 23.6558 10.8552 23.8325 11.0319C24.0092 11.2086 24.2489 11.3079 24.4988 11.3079C24.7487 11.3079 24.9884 11.2086 25.1651 11.0319C25.3418 10.8552 25.4411 10.6155 25.4411 10.3656H23.5565Z" fill="#384685"/>
<path d="M25.4432 0H23.5586V6.59615H25.4432V0Z" fill="#384685"/>
</svg>
